<?xml version="1.0" encoding="utf-8"?>
<!-- Generator: Adobe Illustrator 18.0.0, SVG Export Plug-In . SVG Version: 6.00 Build 0)  -->
<!DOCTYPE svg PUBLIC "-//W3C//DTD SVG 1.1//EN" "http://www.w3.org/Graphics/SVG/1.1/DTD/svg11.dtd">
<svg version="1.1" id="Layer_1" xmlns="http://www.w3.org/2000/svg" xmlns:xlink="http://www.w3.org/1999/xlink" x="0px" y="0px"
	 viewBox="0 0 345.7 53" enable-background="new 0 0 345.7 53" xml:space="preserve">
<g>
	<path fill="#231F20" d="M10.7,47.8H4.6V5.9h25V12h-19v11.8h16.8v6.1H10.7V47.8z"/>
	<path fill="#231F20" d="M52.4,35.5H37.3c-1.6,3.8-3.7,8.9-5,12.4h-6.5L42.6,5.3H47l16.9,42.5h-6.5L52.4,35.5z M39.6,29.8H50
		L44.9,15L39.6,29.8z"/>
	<path fill="#231F20" d="M70.1,48V11.5H57.4V5.8h31.4v5.6H76.2V48H70.1z"/>
	<path fill="#231F20" d="M97.6,23.6h17.8V5.9h6.1v41.9h-6.1V29.6H97.6v18.2h-6.1V5.9h6.1V23.6z"/>
	<path fill="#231F20" d="M130.6,11.7c3.8-3.9,9.2-6.4,15.1-6.4c5.9,0,11.3,2.5,15.2,6.4c3.8,3.9,6.2,9.2,6.2,15.2
		s-2.5,11.3-6.2,15.2c-3.9,4-9.2,6.4-15.2,6.4c-5.9,0-11.3-2.4-15.1-6.4c-3.8-3.9-6.2-9.2-6.2-15.2S126.8,15.6,130.6,11.7z
		 M156.5,16c-2.8-2.8-6.7-4.6-10.9-4.6c-4.1,0-8,1.7-10.7,4.6c-2.8,2.8-4.5,6.6-4.5,10.9s1.7,8.1,4.5,10.9c2.8,2.8,6.6,4.6,10.7,4.6
		c4.1,0,8-1.7,10.9-4.6c2.7-2.8,4.4-6.5,4.4-10.9C161,22.5,159.2,18.7,156.5,16z"/>
	<path fill="#231F20" d="M177.8,47.8h-6.1v-42h4.9l13.9,20.4l13.9-20.4h4.8v42h-6V18.3l-11,16.3h-3.4l-11-16.3V47.8z"/>
	<path fill="#231F20" d="M216.8,46.9h22.6v1c-7.9,0-15.7,0-23.5,0V5.9h1V46.9z"/>
	<path fill="#231F20" d="M269.1,33.7h-21.2l-5.7,14.1h-1L258,5.2h1l16.9,42.6h-1L269.1,33.7z M248.3,32.8h20.5L258.5,6.5L248.3,32.8
		z"/>
	<path fill="#231F20" d="M304.8,11.8c1,2.5,1,5.5,0,8.1c-0.9,2.3-2.5,4.2-4.9,5.2c12.3,2.2,11.6,22.7-2.2,22.7c-4.6,0-14.2,0-18.7,0
		V5.9c4,0,13,0,17,0C300.5,5.9,303.5,8.5,304.8,11.8z M280,24.9h16c4.1,0,6.8-2.3,8-5.3c0.9-2.3,0.9-5,0-7.4c-1.2-3-3.8-5.3-8-5.3
		h-16V24.9z M280,46.9h17.7c13.4,0,13.4-21.1,0-21.1H280V46.9z"/>
	<path fill="#231F20" d="M338.9,14.7c-0.4-1.7-1.1-3.2-2.3-4.6c-2.6-2.8-6.7-3.9-10.5-3.8c-4,0.1-8.5,1.5-11,4.8
		c-1.5,1.9-2,4.1-1.9,6.4c1.1,14.7,24.7,3.2,27.5,16.6c1.9,8.9-6.5,14.2-14.5,14.2c-6.1,0-13.6-3.5-14.3-10.3l-0.1-0.4l1-0.1
		l0.1,0.4c0.7,6.3,7.7,9.5,13.4,9.5c7.3,0,15.2-4.7,13.5-13.1c-2.7-12.5-26.4-1.1-27.5-16.7c-0.2-2.5,0.4-5,2-7
		c6.1-7.9,23.4-6.9,25.4,4l0.1,0.5l-0.9,0.2L338.9,14.7z"/>
</g>
<g>
</g>
<g>
</g>
<g>
</g>
<g>
</g>
<g>
</g>
<g>
</g>
<g>
</g>
<g>
</g>
<g>
</g>
<g>
</g>
<g>
</g>
<g>
</g>
<g>
</g>
<g>
</g>
<g>
</g>
</svg>
